<svg xmlns="http://www.w3.org/2000/svg" viewBox="-0.5 499.5 1301 7001">
	<path d="M 0 500 C 100 500 200 500 300 700 C 400 900 400 1100 500 1100 C 700 1100 800 1100 900 1300 C 960.2 1460 1127.2 1520 1100 1700 C 1100 1900 1300 1700 1300 1900 V 2100 V 2300 C 1300 2500 1100 2300 1000 2500 C 900 2700 700 2500 600 2700 C 500 2900 600 2900 600 2900 C 600 2900 700 2900 700 2700 C 700 2500 600 2500 600 2500 C 500 2500 500 2700 400 2700 C 300 2700 100 3100 100 3300 V 3900 C 100 4100 100 4300 200 4300 C 300 4300 400 4100 400 4500 C 400 4700 500 4900 600 4700 C 700 4500 900 4500 1000 4500 C 1100 4500 1300 4500 1300 4700 V 5500 C 1300 5700 1000 5500 1000 5300 C 1000 5100 900 5300 800 5300 C 700 5300 700 5500 700 5500 C 700 5700 700 5700 800 5700 C 900 5700 800 5500 700 5300 C 600 5100 500 5500 500 5700 C 500 5900 433.33 5966.66 400 6100 C 366.67 6233.34 400 6300 300 6500 C 200 6700 100 6700 100 6900 V 7500" stroke="#FF0000" stroke-width="50" fill="none"/>
</svg>